<svg xmlns="http://www.w3.org/2000/svg" xmlns:xlink="http://www.w3.org/1999/xlink" width="16" zoomAndPan="magnify" viewBox="0 0 12 11.999999" height="16" preserveAspectRatio="xMidYMid meet" version="1.0"><defs><clipPath id="8ef745f723"><path d="M 0 0 L 12 0 L 12 11.8125 L 0 11.8125 Z M 0 0 " clip-rule="nonzero"/></clipPath><clipPath id="67a2537936"><path d="M 0.648438 0 L 11.382812 0 L 11.382812 10 L 0.648438 10 Z M 0.648438 0 " clip-rule="nonzero"/></clipPath><clipPath id="1c267e59d9"><path d="M 3 8 L 9 8 L 9 11.863281 L 3 11.863281 Z M 3 8 " clip-rule="nonzero"/></clipPath><clipPath id="3c3e8e5bfa"><path d="M 7 8 L 10 8 L 10 11 L 7 11 Z M 7 8 " clip-rule="nonzero"/></clipPath><clipPath id="d211215c8d"><path d="M 7.582031 9.507812 L 8.664062 8.375 L 9.484375 9.160156 L 8.402344 10.292969 Z M 7.582031 9.507812 " clip-rule="nonzero"/></clipPath><clipPath id="1c7c81cf04"><path d="M 7.972656 9.101562 L 8.269531 8.789062 C 8.484375 8.5625 8.84375 8.554688 9.070312 8.769531 C 9.296875 8.988281 9.304688 9.347656 9.089844 9.574219 L 8.792969 9.882812 C 8.574219 10.109375 8.21875 10.117188 7.992188 9.902344 C 7.765625 9.683594 7.757812 9.324219 7.972656 9.101562 Z M 7.972656 9.101562 " clip-rule="nonzero"/></clipPath><clipPath id="8b398f1efc"><path d="M 7 8 L 9 8 L 9 10 L 7 10 Z M 7 8 " clip-rule="nonzero"/></clipPath><clipPath id="3a9307d14a"><path d="M 7.582031 9.210938 L 8.6875 8.101562 L 8.9375 8.355469 L 7.832031 9.460938 Z M 7.582031 9.210938 " clip-rule="nonzero"/></clipPath><clipPath id="0117dfb346"><path d="M 7.707031 9.082031 L 8.5625 8.230469 C 8.628906 8.160156 8.742188 8.160156 8.8125 8.230469 C 8.882812 8.296875 8.882812 8.410156 8.8125 8.480469 L 7.957031 9.335938 C 7.886719 9.40625 7.777344 9.40625 7.707031 9.335938 C 7.636719 9.265625 7.636719 9.152344 7.707031 9.082031 Z M 7.707031 9.082031 " clip-rule="nonzero"/></clipPath></defs><g clip-path="url(#8ef745f723)"><path fill="#f1f5fa" d="M 0 0 L 11.996094 0 L 11.996094 11.8125 L 0 11.8125 Z M 0 0 " fill-opacity="1" fill-rule="nonzero"/></g><g clip-path="url(#67a2537936)"><path fill="#004c54" d="M 8.871094 7.5625 C 9.648438 6.324219 10.015625 5.027344 10.058594 3.515625 C 10.515625 3.917969 10.910156 4.253906 11.292969 4.605469 C 11.339844 4.652344 11.347656 4.769531 11.335938 4.847656 C 11.058594 6.628906 10.289062 8.171875 9.050781 9.558594 C 8.132812 8.59375 7.238281 7.652344 6.316406 6.679688 C 5.246094 7.671875 4.207031 8.632812 3.085938 9.667969 C 2.6875 9.109375 2.285156 8.59375 1.9375 8.046875 C 1.371094 7.152344 1.039062 6.160156 0.820312 5.125 C 0.660156 4.367188 0.652344 4.347656 1.320312 3.96875 C 1.527344 3.847656 1.738281 3.742188 2.003906 3.601562 C 2.011719 5.175781 2.449219 6.539062 3.375 7.871094 C 4.042969 7.105469 4.660156 6.394531 5.324219 5.632812 C 4.558594 4.816406 3.675781 3.878906 2.757812 2.902344 C 3.859375 1.929688 4.9375 0.972656 6.035156 0 C 6.992188 0.832031 7.921875 1.640625 8.898438 2.492188 C 8.585938 2.789062 8.300781 3.058594 7.972656 3.367188 C 7.441406 2.898438 6.90625 2.464844 6.417969 1.984375 C 6.125 1.695312 5.921875 1.714844 5.644531 1.996094 C 5.3125 2.332031 4.9375 2.625 4.535156 2.980469 C 5.980469 4.507812 7.40625 6.015625 8.871094 7.5625 Z M 8.871094 7.5625 " fill-opacity="1" fill-rule="nonzero"/></g><g clip-path="url(#1c267e59d9)"><path fill="#004c54" d="M 3.433594 10.117188 C 3.816406 9.730469 4.09375 9.449219 4.386719 9.152344 C 4.832031 9.503906 5.300781 9.851562 5.75 10.226562 C 5.972656 10.410156 6.136719 10.390625 6.347656 10.207031 C 6.835938 9.789062 7.339844 9.386719 7.84375 8.972656 C 8.144531 9.257812 8.453125 9.546875 8.78125 9.855469 C 7.980469 10.664062 7.136719 11.320312 6.175781 11.816406 C 6.085938 11.863281 5.914062 11.84375 5.824219 11.785156 C 5.023438 11.238281 4.230469 10.675781 3.433594 10.117188 Z M 3.433594 10.117188 " fill-opacity="1" fill-rule="nonzero"/></g><g clip-path="url(#3c3e8e5bfa)"><g clip-path="url(#d211215c8d)"><g clip-path="url(#1c7c81cf04)"><path fill="#004c54" d="M 7.582031 9.507812 L 8.660156 8.378906 L 9.480469 9.164062 L 8.402344 10.292969 Z M 7.582031 9.507812 " fill-opacity="1" fill-rule="nonzero"/></g></g></g><g clip-path="url(#8b398f1efc)"><g clip-path="url(#3a9307d14a)"><g clip-path="url(#0117dfb346)"><path fill="#004c54" d="M 7.582031 9.210938 L 8.6875 8.105469 L 8.9375 8.355469 L 7.832031 9.460938 Z M 7.582031 9.210938 " fill-opacity="1" fill-rule="nonzero"/></g></g></g></svg>